<?xml version="1.0" encoding="UTF-8" standalone="no"?>
<!-- Created with Inkscape (http://www.inkscape.org/) -->

<svg
   xmlns:dc="http://purl.org/dc/elements/1.1/"
   xmlns:cc="http://creativecommons.org/ns#"
   xmlns:rdf="http://www.w3.org/1999/02/22-rdf-syntax-ns#"
   xmlns:svg="http://www.w3.org/2000/svg"
   xmlns="http://www.w3.org/2000/svg"
   xmlns:sodipodi="http://sodipodi.sourceforge.net/DTD/sodipodi-0.dtd"
   xmlns:inkscape="http://www.inkscape.org/namespaces/inkscape"
   width="100mm"
   height="6mm"
   viewBox="0 0 100 6"
   version="1.1"
   id="svg8"
   inkscape:version="0.92.1 r15371"
   sodipodi:docname="splitter_footer.svg">
  <defs
     id="defs2" />
  <sodipodi:namedview
     id="base"
     pagecolor="#ffffff"
     bordercolor="#666666"
     borderopacity="1.0"
     inkscape:pageopacity="0.0"
     inkscape:pageshadow="2"
     inkscape:zoom="2"
     inkscape:cx="148.62209"
     inkscape:cy="-12.693583"
     inkscape:document-units="mm"
     inkscape:current-layer="layer1"
     showgrid="false"
     inkscape:pagecheckerboard="true"
     inkscape:window-width="1920"
     inkscape:window-height="1017"
     inkscape:window-x="1912"
     inkscape:window-y="-8"
     inkscape:window-maximized="1" />
  <metadata
     id="metadata5">
    <rdf:RDF>
      <cc:Work
         rdf:about="">
        <dc:format>image/svg+xml</dc:format>
        <dc:type
           rdf:resource="http://purl.org/dc/dcmitype/StillImage" />
        <dc:title></dc:title>
      </cc:Work>
    </rdf:RDF>
  </metadata>
  <g
     inkscape:groupmode="layer"
     id="layer2"
     inkscape:label="Layer 2"
     transform="translate(0,0.500004)"
     style="display:none">
    <rect
       style="fill:#f5f5f5;fill-opacity:1;stroke-width:0.26458332"
       id="rect4486"
       width="163.64479"
       height="38.496876"
       x="-32.279167"
       y="-18.577084" />
  </g>
  <g
     inkscape:label="Layer 1"
     inkscape:groupmode="layer"
     id="layer1"
     transform="translate(0,-291)"
     style="display:inline">
    <path
       style="fill:none;stroke:#000000;stroke-width:0.35362077px;stroke-linecap:butt;stroke-linejoin:miter;stroke-opacity:1"
       d="m 35.554465,268.42913 0.758009,-20.85477 103.348856,5.04709 4.01759,15.90006 z"
       id="path10"
       inkscape:connector-curvature="0"
       sodipodi:nodetypes="ccccc" />
    <path
       style="fill:#101417;fill-opacity:1;stroke-width:0.09354433"
       d="m -1.2312792,291.52282 c -0.2209456,0.76983 -0.094206,1.62604 -0.1824951,2.42755 -0.2359977,6.00533 -0.4990525,12.01128 -0.675482,18.01792 0.2479551,0.47565 0.9427506,0.2139 1.3764903,0.31169 12.028889,0.1189 24.058991,0.0582 36.08838,0.0876 23.461123,0.0159 46.922242,0.0348 70.383346,0.0697 0.54864,-0.19639 0.0311,-0.88081 0.0278,-1.27692 -1.22036,-4.84585 -2.44887,-9.68966 -3.67491,-14.53408 -0.33663,-0.41975 -1.02392,-0.13852 -1.50255,-0.26255 -33.861262,-1.66762 -67.723554,-3.32119 -101.5880526,-4.91583 -0.092098,-0.0201 -0.1670656,0.0559 -0.2524966,0.0749 z"
       id="path4486"
       inkscape:connector-curvature="0" />
  </g>
</svg>
