<?xml version="1.0" encoding="UTF-8" standalone="no"?>
<!-- Created with Inkscape (http://www.inkscape.org/) -->

<svg
   xmlns:dc="http://purl.org/dc/elements/1.1/"
   xmlns:cc="http://creativecommons.org/ns#"
   xmlns:rdf="http://www.w3.org/1999/02/22-rdf-syntax-ns#"
   xmlns:svg="http://www.w3.org/2000/svg"
   xmlns="http://www.w3.org/2000/svg"
   xmlns:sodipodi="http://sodipodi.sourceforge.net/DTD/sodipodi-0.dtd"
   xmlns:inkscape="http://www.inkscape.org/namespaces/inkscape"
   width="120.49993mm"
   height="108.4315mm"
   viewBox="0 0 426.96825 384.20611"
   id="svg2"
   version="1.1"
   inkscape:version="0.92.1 r15371"
   sodipodi:docname="logo3-path 2.svg">
  <defs
     id="defs4" />
  <sodipodi:namedview
     id="base"
     pagecolor="#ffffff"
     bordercolor="#666666"
     borderopacity="1.0"
     inkscape:pageopacity="0.0"
     inkscape:pageshadow="2"
     inkscape:zoom="1.4142135"
     inkscape:cx="77.240713"
     inkscape:cy="225.38438"
     inkscape:document-units="px"
     inkscape:current-layer="layer3"
     showgrid="false"
     inkscape:object-nodes="true"
     inkscape:snap-intersection-paths="true"
     inkscape:object-paths="true"
     inkscape:snap-smooth-nodes="true"
     inkscape:window-width="1920"
     inkscape:window-height="1017"
     inkscape:window-x="-8"
     inkscape:window-y="-8"
     inkscape:window-maximized="1"
     inkscape:snap-midpoints="true"
     inkscape:snap-text-baseline="true"
     inkscape:snap-bbox="true"
     inkscape:snap-others="true"
     inkscape:bbox-nodes="true"
     inkscape:bbox-paths="true"
     inkscape:snap-bbox-edge-midpoints="true"
     inkscape:snap-bbox-midpoints="true"
     inkscape:snap-nodes="true"
     inkscape:snap-global="true"
     showguides="true"
     fit-margin-top="10"
     fit-margin-left="10"
     fit-margin-right="10"
     fit-margin-bottom="10"
     showborder="true"
     borderlayer="false">
    <sodipodi:guide
       position="406.7768,178.44919"
       orientation="-18.90625,7.5"
       id="guide4196"
       inkscape:locked="false" />
    <sodipodi:guide
       position="486.74556,178.44919"
       orientation="-18.90625,-7.5"
       id="guide4198"
       inkscape:locked="false" />
    <sodipodi:guide
       position="446.76118,279.24314"
       orientation="173.37106,0"
       id="guide4202"
       inkscape:locked="false" />
    <sodipodi:guide
       position="446.76119,106.38663"
       orientation="0,20.55988"
       id="guide4170"
       inkscape:locked="false" />
    <sodipodi:guide
       position="446.76118,106.38663"
       orientation="-160.88252,99.87498"
       id="guide4178"
       inkscape:locked="false" />
    <sodipodi:guide
       position="446.76118,106.38663"
       orientation="-160.88252,-99.5428"
       id="guide4182"
       inkscape:locked="false" />
    <sodipodi:guide
       position="575.09726,-44.270752"
       orientation="0,-29.96109"
       id="guide4188"
       inkscape:locked="false" />
    <sodipodi:guide
       position="446.76118,279.24314"
       orientation="172.85648,-42.25001"
       id="guide4194"
       inkscape:locked="false" />
    <sodipodi:guide
       position="446.76118,279.24314"
       orientation="172.85648,42.25002"
       id="guide4199"
       inkscape:locked="false" />
    <sodipodi:guide
       position="404.97862,173.91626"
       orientation="0.13703,83.61949"
       id="guide4211"
       inkscape:locked="false" />
    <sodipodi:guide
       position="367.68712,-20.988961"
       orientation="0,59.85919"
       id="guide4217"
       inkscape:locked="false" />
    <sodipodi:guide
       position="367.68712,-67.552499"
       orientation="0,26.62518"
       id="guide4221"
       inkscape:locked="false" />
    <sodipodi:guide
       position="472.53251,175.88667"
       orientation="0,12.54116"
       id="guide4235"
       inkscape:locked="false" />
    <sodipodi:guide
       position="472.53251,171.72445"
       orientation="0,6.66616"
       id="guide4239"
       inkscape:locked="false" />
    <sodipodi:guide
       position="474.13618,178.82422"
       orientation="22.49479,-38.96211"
       id="guide4263"
       inkscape:locked="false" />
    <sodipodi:guide
       position="446.76118,163.01925"
       orientation="21.1476,36.62872"
       id="guide4267"
       inkscape:locked="false" />
    <sodipodi:guide
       position="429.84442,203.90031"
       orientation="97.51364,16.91676"
       id="guide4271"
       inkscape:locked="false" />
    <sodipodi:guide
       position="467.62458,226.65"
       orientation="120.26333,-20.8634"
       id="guide4283"
       inkscape:locked="false" />
    <sodipodi:guide
       position="454.67494,154.81398"
       orientation="0,-20.28876"
       id="guide4293"
       inkscape:locked="false" />
    <sodipodi:guide
       position="446.01899,164.60632"
       orientation="5.72328,0"
       id="guide4184"
       inkscape:locked="false" />
    <sodipodi:guide
       position="447.51899,164.61804"
       orientation="5.93387,0"
       id="guide4190"
       inkscape:locked="false" />
    <sodipodi:guide
       position="353.94864,347.42277"
       orientation="6.870815,25.21968"
       id="guide4183"
       inkscape:locked="false" />
    <sodipodi:guide
       position="390.12295,311.11858"
       orientation="-25.135444,-6.7037"
       id="guide4187"
       inkscape:locked="false" />
    <sodipodi:guide
       position="389.85088,309.64499"
       orientation="18.53394,-18.53393"
       id="guide4191"
       inkscape:locked="false" />
    <sodipodi:guide
       position="340.30645,296.38397"
       orientation="6.77276,25.27079"
       id="guide4195"
       inkscape:locked="false" />
    <sodipodi:guide
       position="339.2375,297.43635"
       orientation="-25.26249,-6.76999"
       id="guide4200"
       inkscape:locked="false" />
    <sodipodi:guide
       position="352.51786,346.96147"
       orientation="18.503549,-18.50355"
       id="guide4204"
       inkscape:locked="false" />
  </sodipodi:namedview>
  <metadata
     id="metadata7">
    <rdf:RDF>
      <cc:Work
         rdf:about="">
        <dc:format>image/svg+xml</dc:format>
        <dc:type
           rdf:resource="http://purl.org/dc/dcmitype/StillImage" />
        <dc:title></dc:title>
      </cc:Work>
    </rdf:RDF>
  </metadata>
  <g
     inkscape:groupmode="layer"
     id="layer4"
     inkscape:label="Background"
     style="display:inline;opacity:0"
     sodipodi:insensitive="true"
     transform="translate(-38.613804,-32.980513)">
    <rect
       style="display:inline;fill:#000000;fill-opacity:1;stroke:none;stroke-width:3;stroke-miterlimit:4;stroke-dasharray:none"
       id="rect4178"
       width="817.89136"
       height="1135.723"
       x="-42.902306"
       y="-50.833889" />
  </g>
  <g
     inkscape:groupmode="layer"
     id="layer2"
     inkscape:label="Phage"
     style="display:inline"
     transform="translate(-38.613804,-32.980513)">
    <path
       style="display:inline;fill:#000000;fill-opacity:1;fill-rule:evenodd;stroke:none;stroke-width:0.2;stroke-linecap:butt;stroke-linejoin:miter;stroke-miterlimit:4;stroke-dasharray:none;stroke-opacity:1"
       d="m 391.34652,68.413584 -22.22967,22.22967 8.13172,30.759146 30.53818,8.17592 22.36225,-22.36225 -8.17592,-30.538175 z"
       id="path4316"
       inkscape:connector-curvature="0" />
    <path
       style="display:inline;fill:#ffffff;fill-opacity:1;fill-rule:evenodd;stroke:none;stroke-width:0.2;stroke-linecap:butt;stroke-linejoin:miter;stroke-miterlimit:4;stroke-dasharray:none;stroke-opacity:1"
       d="m 392.56246,69.763661 2.53702,9.52523 26.0306,-1.742294 z"
       id="path4318"
       inkscape:connector-curvature="0"
       sodipodi:nodetypes="cccc" />
    <path
       style="display:inline;fill:#ffffff;fill-opacity:1;fill-rule:evenodd;stroke:none;stroke-width:0.2;stroke-linecap:butt;stroke-linejoin:miter;stroke-miterlimit:4;stroke-dasharray:none;stroke-opacity:1"
       d="m 396.24991,80.740391 21.66067,21.660679 1.7169,-23.440274 z"
       id="path4320"
       inkscape:connector-curvature="0"
       sodipodi:nodetypes="cccc" />
    <path
       style="display:inline;fill:#b2b2b2;fill-opacity:1;fill-rule:evenodd;stroke:none;stroke-width:0.2;stroke-linecap:butt;stroke-linejoin:miter;stroke-miterlimit:4;stroke-dasharray:none;stroke-opacity:1"
       d="m 419.38418,103.57359 9.35259,2.49421 -7.60669,-28.521218 z"
       id="path4322"
       inkscape:connector-curvature="0"
       sodipodi:nodetypes="cccc" />
    <path
       style="display:inline;fill:#ffffff;fill-opacity:1;fill-rule:evenodd;stroke:none;stroke-width:0.2;stroke-linecap:butt;stroke-linejoin:miter;stroke-miterlimit:4;stroke-dasharray:none;stroke-opacity:1"
       d="m 370.19108,91.165539 23.46518,-11.447137 -2.52458,-9.49346 z"
       id="path4151"
       inkscape:connector-curvature="0"
       sodipodi:nodetypes="cccc" />
    <path
       style="display:inline;fill:#ffffff;fill-opacity:1;fill-rule:evenodd;stroke:none;stroke-width:0.2;stroke-linecap:butt;stroke-linejoin:miter;stroke-miterlimit:4;stroke-dasharray:none;stroke-opacity:1"
       d="m 372.42546,91.759289 13.04798,19.498561 7.97705,-29.864213 c 0,0 -20.71253,10.365652 -21.02503,10.365652 z"
       id="path4155"
       inkscape:connector-curvature="0"
       sodipodi:nodetypes="cccc" />
    <path
       style="display:inline;fill:#ffffff;fill-opacity:1;fill-rule:evenodd;stroke:none;stroke-width:0.2;stroke-linecap:butt;stroke-linejoin:miter;stroke-miterlimit:4;stroke-dasharray:none;stroke-opacity:1"
       d="m 386.79374,111.85448 c 10.10297,-2.70967 20.20595,-5.41931 30.30892,-8.12898 -7.38595,-7.38594 -14.7719,-14.771894 -22.15786,-22.157851 -2.71702,10.095611 -5.43404,20.191211 -8.15106,30.286831 z"
       id="path4159"
       inkscape:connector-curvature="0" />
    <path
       style="display:inline;fill:#bdbdbd;fill-opacity:1;fill-rule:evenodd;stroke:none;stroke-width:0.2;stroke-linecap:butt;stroke-linejoin:miter;stroke-miterlimit:4;stroke-dasharray:none;stroke-opacity:1"
       d="m 387.4318,113.20516 19.60299,13.39115 10.20321,-21.3903 z"
       id="path4169"
       inkscape:connector-curvature="0"
       sodipodi:nodetypes="cccc" />
    <path
       style="display:inline;fill:#8a8a8a;fill-opacity:1;fill-rule:evenodd;stroke:none;stroke-width:0.2;stroke-linecap:butt;stroke-linejoin:miter;stroke-miterlimit:4;stroke-dasharray:none;stroke-opacity:1"
       d="m 418.94776,105.00437 -11.41297,23.46694 20.92991,-20.92992 c -3.17231,-0.84566 -6.34462,-1.69134 -9.51694,-2.53702 z"
       id="path4171"
       inkscape:connector-curvature="0"
       sodipodi:nodetypes="cccc" />
    <path
       style="display:inline;fill:#8a8a8a;fill-opacity:1;fill-rule:evenodd;stroke:none;stroke-width:0.2;stroke-linecap:butt;stroke-linejoin:miter;stroke-miterlimit:4;stroke-dasharray:none;stroke-opacity:1"
       d="m 385.84495,113.87773 -6.92468,6.92468 28.61452,7.6689 z"
       id="path4173"
       inkscape:connector-curvature="0"
       sodipodi:nodetypes="cccc" />
    <path
       style="display:inline;fill:#b2b2b2;fill-opacity:1;fill-rule:evenodd;stroke:none;stroke-width:0.2;stroke-linecap:butt;stroke-linejoin:miter;stroke-miterlimit:4;stroke-dasharray:none;stroke-opacity:1"
       d="m 377.85132,119.75003 6.92882,-6.92881 -14.58906,-21.655683 z"
       id="path4175"
       inkscape:connector-curvature="0"
       sodipodi:nodetypes="cccc" />
    <path
       style="fill:#ffffff;fill-opacity:1;fill-rule:evenodd;stroke:#000000;stroke-width:0.2;stroke-linecap:butt;stroke-linejoin:miter;stroke-miterlimit:4;stroke-dasharray:none;stroke-opacity:1"
       d="m 162.92383,167.29384 194.43668,-83.987437 -20.15189,78.135947 9.41336,-65.98191 -183.69815,71.8334"
       id="path4241"
       inkscape:connector-curvature="0" />
    <path
       style="fill:#bdbdbd;fill-opacity:1;fill-rule:evenodd;stroke:#000000;stroke-width:0.2;stroke-linecap:butt;stroke-linejoin:miter;stroke-miterlimit:4;stroke-dasharray:none;stroke-opacity:1"
       d="M 337.20862,161.44235 364.82665,96.6588 154.2774,224.49826 l 200.60539,-116.904 -17.67417,53.84809"
       id="path4243"
       inkscape:connector-curvature="0" />
    <path
       style="fill:#bdbdbd;fill-opacity:1;fill-rule:evenodd;stroke:#000000;stroke-width:0.2;stroke-linecap:butt;stroke-linejoin:miter;stroke-miterlimit:4;stroke-dasharray:none;stroke-opacity:1"
       d="M 337.20862,161.44235 404.21593,130.16182 299.03044,303.40046 392.6723,141.334 Z"
       id="path4245"
       inkscape:connector-curvature="0" />
    <path
       style="fill:#ffffff;fill-opacity:1;fill-rule:evenodd;stroke:#000000;stroke-width:0.2;stroke-linecap:butt;stroke-linejoin:miter;stroke-miterlimit:4;stroke-dasharray:none;stroke-opacity:1"
       d="m 337.20862,161.44235 76.36034,-16.04123 -102.07593,236.31277 90.63975,-227.86962 -64.92416,7.59808"
       id="path4247"
       inkscape:connector-curvature="0"
       sodipodi:nodetypes="ccccc" />
    <path
       style="fill:#ffffff;fill-opacity:1;fill-rule:evenodd;stroke:none;stroke-width:0.2;stroke-linecap:butt;stroke-linejoin:miter;stroke-miterlimit:4;stroke-dasharray:none;stroke-opacity:1"
       d="m 376.4261,121.17526 -9.13257,-2.44707 -27.58456,39.1642 z"
       id="path4184"
       inkscape:connector-curvature="0" />
    <path
       style="fill:#8a8a8a;fill-opacity:1;fill-rule:evenodd;stroke:none;stroke-width:0.2;stroke-linecap:butt;stroke-linejoin:miter;stroke-miterlimit:4;stroke-dasharray:none;stroke-opacity:1"
       d="m 377.48038,122.2423 2.4424,9.11515 -39.08948,27.53193 z"
       id="path4186"
       inkscape:connector-curvature="0" />
  </g>
  <g
     inkscape:groupmode="layer"
     id="layer3"
     inkscape:label="Name"
     style="display:inline"
     transform="translate(-38.613804,-32.980513)">
    <g
       style="font-style:normal;font-variant:normal;font-weight:normal;font-stretch:normal;font-size:70px;line-height:125%;font-family:'Electro Shackle';-inkscape-font-specification:'Electro Shackle';letter-spacing:0px;word-spacing:0px;display:inline;fill:#21aeff;fill-opacity:0.98492461;stroke:none;stroke-width:1px;stroke-linecap:butt;stroke-linejoin:miter;stroke-opacity:1;fill-rule:nonzero"
       id="text4206">
      <path
         d="m 80.882812,236.78159 q 0,1.40136 -1.02539,2.42675 -0.991211,0.99121 -2.392578,0.99121 -1.401367,0 -2.426758,-0.99121 -0.991211,-1.02539 -0.991211,-2.42675 l 0,-41.01563 q 0,-1.40137 0.991211,-2.39258 1.025391,-1.02539 2.426758,-1.02539 l 23.925786,0 q 5.67382,0 9.67285,3.99903 3.99902,3.99902 3.99902,9.67285 0,5.67383 -3.99902,9.67285 -3.99903,3.99902 -9.67285,3.99902 l -20.507818,0 0,17.08985 z m 0,-37.59766 0,13.67187 20.507818,0 q 2.83691,0 4.81933,-1.98242 2.0166,-2.0166 2.0166,-4.85351 0,-2.83692 -2.0166,-4.81934 -1.98242,-2.0166 -4.81933,-2.0166 l -20.507818,0 z"
         style="fill:#21aeff;fill-opacity:0.98492461;fill-rule:nonzero"
         id="path4187" />
      <path
         d="m 121.89844,195.76596 q 0,-1.40137 0.99121,-2.39258 1.02539,-1.02539 2.42676,-1.02539 1.40136,0 2.39257,1.02539 1.02539,0.99121 1.02539,2.39258 l 0,41.01563 q 0,1.40136 -1.02539,2.42675 -0.99121,0.99121 -2.39257,0.99121 -1.40137,0 -2.42676,-0.99121 -0.99121,-1.02539 -0.99121,-2.42675 l 0,-41.01563 z m 34.17968,0 q 0,-1.40137 0.99122,-2.39258 1.02539,-1.02539 2.42675,-1.02539 1.40137,0 2.39258,1.02539 1.02539,0.99121 1.02539,2.39258 l 0,41.01563 q 0,1.40136 -1.02539,2.42675 -0.99121,0.99121 -2.39258,0.99121 -1.40136,0 -2.42675,-0.99121 -0.99122,-1.02539 -0.99122,-2.42675 l 0,-17.08985 -17.08984,0 q -1.40137,0 -2.42676,-0.99121 -0.99121,-1.02539 -0.99121,-2.42676 0,-1.40136 0.99121,-2.39257 1.02539,-1.0254 2.42676,-1.0254 l 17.08984,0 0,-17.08984 z"
         style="fill:#21aeff;fill-opacity:0.98492461;fill-rule:nonzero"
         id="path4189" />
      <path
         d="m 176.27832,238.18295 q -0.23926,0.54688 -0.68359,0.99121 -1.02539,1.02539 -2.42676,1.02539 -1.40137,0 -2.42676,-0.99121 -0.99121,-1.02539 -0.99121,-2.42675 0,-0.8545 0.37598,-1.57227 l 16.78222,-40.29785 0.0342,0 q 0.20508,-0.85449 0.92285,-1.57227 0.99122,-0.99121 2.39258,-0.99121 1.40137,0 2.42676,0.99121 0.75195,0.78614 0.92285,1.74317 l 0.13672,-0.0342 16.88477,40.63965 -0.0342,0 q 0.17089,0.51269 0.17089,1.09375 0,1.40136 -1.02539,2.42675 -0.99121,0.99121 -2.39257,0.99121 -1.40137,0 -2.39258,-1.02539 -0.6836,-0.64941 -0.88867,-1.46972 l -13.77442,-33.18848 -13.97949,33.66699 -0.0342,0 z"
         style="fill:#21aeff;fill-opacity:0.98492461;fill-rule:nonzero"
         id="path4191" />
      <path
         d="m 249.73047,192.34799 q 1.40137,0 2.39258,1.02539 1.02539,0.99121 1.02539,2.39258 0,1.40137 -1.02539,2.42676 -0.99121,0.99121 -2.39258,0.99121 l -13.67188,0 q -7.07519,0 -12.09961,5.02441 -4.99023,4.99024 -4.99023,12.06543 0,7.0752 4.99023,12.09961 5.02442,4.99024 12.09961,4.99024 l 10.25391,0 0,-13.67188 -10.25391,0 q -1.40136,0 -2.42675,-0.99121 -0.99122,-1.02539 -0.99122,-2.42676 0,-1.40136 0.99122,-2.39257 1.02539,-1.0254 2.42675,-1.0254 l 13.67188,0 q 1.40137,0 2.39258,1.0254 1.02539,0.99121 1.02539,2.39257 l 0,20.50782 q 0,1.40136 -1.02539,2.42675 -0.99121,0.99121 -2.39258,0.99121 l -13.67188,0 q -9.91211,0 -16.91894,-7.00683 -7.00684,-7.00684 -7.00684,-16.91895 0,-9.91211 7.00684,-16.91894 7.00683,-7.00684 16.91894,-7.00684 l 13.67188,0 z"
         style="fill:#21aeff;fill-opacity:0.98492461;fill-rule:nonzero"
         id="path4193" />
      <path
         d="m 263.40234,199.18393 q -1.40136,0 -2.42675,-0.99121 -0.99122,-1.02539 -0.99122,-2.42676 0,-1.40137 0.99122,-2.39258 1.02539,-1.02539 2.42675,-1.02539 l 34.17969,0 q 1.40137,0 2.39258,1.02539 1.02539,0.99121 1.02539,2.39258 0,1.40137 -1.02539,2.42676 -0.99121,0.99121 -2.39258,0.99121 l -34.17969,0 z m 34.17969,13.67187 q 1.40137,0 2.39258,1.0254 1.02539,0.99121 1.02539,2.39257 0,1.40137 -1.02539,2.42676 -0.99121,0.99121 -2.39258,0.99121 l -34.17969,0 q -1.40136,0 -2.42675,-0.99121 -0.99122,-1.02539 -0.99122,-2.42676 0,-1.40136 0.99122,-2.39257 1.02539,-1.0254 2.42675,-1.0254 l 34.17969,0 z m -34.17969,27.34375 q -1.40136,0 -2.42675,-0.99121 -0.99122,-1.02539 -0.99122,-2.42675 0,-1.40137 0.99122,-2.39258 1.02539,-1.02539 2.42675,-1.02539 l 34.17969,0 q 1.40137,0 2.39258,1.02539 1.02539,0.99121 1.02539,2.39258 0,1.40136 -1.02539,2.42675 -0.99121,0.99121 -2.39258,0.99121 l -34.17969,0 z"
         style="fill:#21aeff;fill-opacity:0.98492461;fill-rule:nonzero"
         id="path4195" />
    </g>
    <g
       style="font-style:normal;font-weight:normal;font-size:70px;line-height:125%;font-family:sans-serif;letter-spacing:0px;word-spacing:0px;display:inline;fill:#0089d9;fill-opacity:1;stroke:none;stroke-width:1px;stroke-linecap:butt;stroke-linejoin:miter;stroke-opacity:1"
       id="text4276">
      <path
         d="m 176.27832,299.70639 q -0.23926,0.54688 -0.68359,0.99121 -1.02539,1.02539 -2.42676,1.02539 -1.40137,0 -2.42676,-0.99121 -0.99121,-1.02539 -0.99121,-2.42676 0,-0.85449 0.37598,-1.57226 l 16.78222,-40.29785 0.0342,0 q 0.20508,-0.8545 0.92285,-1.57227 0.99122,-0.99121 2.39258,-0.99121 1.40137,0 2.42676,0.99121 0.75195,0.78613 0.92285,1.74316 l 0.13672,-0.0342 16.88477,40.63965 -0.0342,0 q 0.17089,0.5127 0.17089,1.09375 0,1.40137 -1.02539,2.42676 -0.99121,0.99121 -2.39257,0.99121 -1.40137,0 -2.39258,-1.02539 -0.6836,-0.64941 -0.88867,-1.46973 l -13.77442,-33.18847 -13.97949,33.66699 -0.0342,0 z"
         style="font-style:normal;font-variant:normal;font-weight:normal;font-stretch:normal;font-family:'Electro Shackle';-inkscape-font-specification:'Electro Shackle';fill:#0089d9;fill-opacity:1"
         id="path4198" />
      <path
         d="m 249.73047,253.87143 q 1.40137,0 2.39258,1.02539 1.02539,0.99121 1.02539,2.39258 0,1.40137 -1.02539,2.42676 -0.99121,0.99121 -2.39258,0.99121 l -13.67188,0 q -7.07519,0 -12.09961,5.02441 -4.99023,4.99024 -4.99023,12.06543 0,7.0752 4.99023,12.09961 5.02442,4.99023 12.09961,4.99023 l 10.25391,0 0,-13.67187 -10.25391,0 q -1.40136,0 -2.42675,-0.99121 -0.99122,-1.02539 -0.99122,-2.42676 0,-1.40137 0.99122,-2.39258 1.02539,-1.02539 2.42675,-1.02539 l 13.67188,0 q 1.40137,0 2.39258,1.02539 1.02539,0.99121 1.02539,2.39258 l 0,20.50781 q 0,1.40137 -1.02539,2.42676 -0.99121,0.99121 -2.39258,0.99121 l -13.67188,0 q -9.91211,0 -16.91894,-7.00683 -7.00684,-7.00684 -7.00684,-16.91895 0,-9.91211 7.00684,-16.91894 7.00683,-7.00684 16.91894,-7.00684 l 13.67188,0 z"
         style="font-style:normal;font-variant:normal;font-weight:normal;font-stretch:normal;font-family:'Electro Shackle';-inkscape-font-specification:'Electro Shackle';fill:#0089d9;fill-opacity:1"
         id="path4200" />
      <path
         d="m 263.40234,260.70737 q -1.40136,0 -2.42675,-0.99121 -0.99122,-1.02539 -0.99122,-2.42676 0,-1.40137 0.99122,-2.39258 1.02539,-1.02539 2.42675,-1.02539 l 34.17969,0 q 1.40137,0 2.39258,1.02539 Q 301,255.88803 301,257.2894 q 0,1.40137 -1.02539,2.42676 -0.99121,0.99121 -2.39258,0.99121 l -34.17969,0 z m 34.17969,13.67187 q 1.40137,0 2.39258,1.02539 1.02539,0.99121 1.02539,2.39258 0,1.40137 -1.02539,2.42676 -0.99121,0.99121 -2.39258,0.99121 l -34.17969,0 q -1.40136,0 -2.42675,-0.99121 -0.99122,-1.02539 -0.99122,-2.42676 0,-1.40137 0.99122,-2.39258 1.02539,-1.02539 2.42675,-1.02539 l 34.17969,0 z m -34.17969,27.34375 q -1.40136,0 -2.42675,-0.99121 -0.99122,-1.02539 -0.99122,-2.42676 0,-1.40136 0.99122,-2.39257 1.02539,-1.0254 2.42675,-1.0254 l 34.17969,0 q 1.40137,0 2.39258,1.0254 1.02539,0.99121 1.02539,2.39257 0,1.40137 -1.02539,2.42676 -0.99121,0.99121 -2.39258,0.99121 l -34.17969,0 z"
         style="font-style:normal;font-variant:normal;font-weight:normal;font-stretch:normal;font-family:'Electro Shackle';-inkscape-font-specification:'Electro Shackle';fill:#0089d9;fill-opacity:1;stroke:none;opacity:1"
         id="path4202" />
    </g>
    <path
       style="fill:none;stroke-width:0.70710683"
       d="M -86.773142,320.52664 V -89.241762 H 349.15821 785.08956 V 320.52664 730.29504 H 349.15821 -86.773142 Z m 412.991912,-29.041 c 17.96108,-41.58595 41.87386,-96.93008 53.1395,-122.98697 11.26564,-26.05688 20.63602,-47.74263 20.82307,-48.19055 0.28325,-0.67828 -12.03276,1.47264 -20.79768,3.63218 -1.34425,0.33121 -0.64209,-1.17195 4.47605,-9.5822 3.33873,-5.48627 5.91192,-10.13351 5.71821,-10.32723 -0.1937,-0.1937 -14.74483,6.36231 -32.33583,14.56892 -17.591,8.20661 -32.09559,14.80916 -32.23243,14.67233 -0.13683,-0.13684 8.6808,-6.54394 19.59475,-14.23802 10.91394,-7.69407 19.70545,-14.34923 19.53667,-14.78923 -0.16878,-0.44002 -0.71628,-2.62966 -1.21665,-4.865889 -0.50039,-2.236225 -1.09997,-4.065864 -1.33242,-4.065864 -0.76457,0 -39.31101,38.889803 -38.59193,38.935703 0.38626,0.0247 -0.0598,0.34968 -0.99136,0.72229 -0.93151,0.37261 -1.83115,0.53999 -1.99918,0.37195 -0.16805,-0.16805 6.09345,-15.33188 13.91445,-33.69741 7.82099,-18.365532 14.11443,-33.497434 13.98541,-33.626446 -0.12902,-0.129011 -3.08279,1.477196 -6.56395,3.569355 -3.48116,2.09216 -6.38394,3.750212 -6.45064,3.684557 -0.0667,-0.06569 1.11831,-4.872524 2.63335,-10.68193 1.51504,-5.809406 2.6234,-10.693782 2.46301,-10.854168 C 339.83079,53.576632 293.3906,73.445726 236.79075,97.890564 180.1909,122.3354 134.12699,142.42023 134.42649,142.52354 c 0.29951,0.10329 43.96371,-16.80096 97.03154,-37.56501 53.06784,-20.764052 96.53121,-37.713063 96.58528,-37.664478 0.14488,0.130207 -1.86978,13.413484 -2.05871,13.573707 -0.94623,0.802411 -157.79796,95.762641 -158.17713,95.762641 -0.28311,0 -1.01239,-1.26689 -1.62064,-2.81532 -0.65511,-1.66777 -1.83992,-3.14978 -2.90671,-3.63584 -2.99984,-1.36682 -4.67556,0.46131 -8.10507,8.84222 l -3.06431,7.48847 -9.31006,5.60979 -9.31005,5.6098 -0.35355,-13.08302 c -0.32171,-11.90449 -0.4772,-13.17329 -1.72614,-14.08509 -1.50115,-1.09594 -3.14381,-1.26978 -4.35519,-0.46092 -1.88198,1.25663 -2.40395,3.96943 -2.40395,12.49383 v 8.88532 h -9.49544 c -10.43474,0 -11.71777,0.4546 -11.71777,4.15173 0,3.3334 0.9257,3.62645 11.45513,3.62645 h 9.75808 l 0.0104,9.01561 c 0.0121,10.43558 0.64022,12.43875 4.00364,12.76766 3.80807,0.37239 4.46922,-1.48129 4.48379,-12.57144 l 0.0126,-9.56538 8.6495,-5.05138 c 4.75723,-2.77825 8.76432,-4.94385 8.90465,-4.81243 0.14034,0.13141 -2.32569,6.43329 -5.48007,14.00418 -3.15439,7.57089 -5.73524,14.16621 -5.73524,14.65626 0,1.45603 2.22938,3.47804 3.8219,3.4664 3.0376,-0.0222 3.04203,-0.03 10.89753,-19.08105 3.12705,-7.58372 6.11592,-14.80104 6.64193,-16.03849 0.95449,-2.24547 0.97087,-2.21472 8.28464,15.55635 4.03054,9.79344 7.82032,18.204 8.42172,18.69014 2.21186,1.78793 6.48001,0.14685 6.48001,-2.49153 0,-0.56919 -3.5591,-9.62244 -7.90911,-20.11834 -6.43667,-15.53065 -7.72019,-19.19528 -6.89429,-19.68419 9.66717,-5.7227 155.89734,-90.942722 155.96149,-90.891244 0.0496,0.03988 -1.49843,11.146224 -3.44018,24.680834 -1.94175,13.53462 -3.33379,24.80505 -3.09344,25.04541 0.24036,0.24036 11.33438,-0.84017 24.65338,-2.40117 13.319,-1.56101 24.29537,-2.78224 24.39192,-2.71385 0.0966,0.0684 -19.43172,34.05982 -43.39616,75.53649 l -43.57172,75.41214 -1.37966,-1.75395 -1.37967,-1.75396 h -20.08492 -20.08492 l -1.21168,1.84925 c -1.08689,1.65881 -1.10402,2.0411 -0.1663,3.71231 l 1.04537,1.86306 19.97482,0.18784 c 11.22065,0.1055 20.50582,-0.0974 21.18644,-0.46295 0.66638,-0.35793 22.36147,-35.48864 48.21131,-78.06825 l 46.99971,-77.41748 6.38685,-0.71752 c 3.51278,-0.39463 6.47894,-0.62937 6.59149,-0.52165 0.11254,0.10772 -21.16759,53.93228 -47.28919,119.61013 -26.1216,65.67784 -47.63275,119.89157 -47.80257,120.47493 -1.16637,4.00681 5.63018,-11.40869 34.47103,-78.18492 z M 146.0551,285.94085 c 0.54902,-0.54902 4.26604,-8.90172 8.26005,-18.56156 3.994,-9.65983 7.32033,-17.63035 7.39186,-17.71225 0.0715,-0.0819 3.43905,7.83224 7.48341,17.58698 4.04435,9.75475 7.80921,18.19174 8.36633,18.74886 1.52377,1.52378 4.52132,0.86603 5.70442,-1.2517 0.97399,-1.74343 0.56029,-2.95244 -8.34754,-24.39519 -5.15478,-12.40846 -9.87133,-23.1177 -10.48123,-23.79829 -0.60991,-0.68059 -1.80578,-1.23743 -2.6575,-1.23743 -0.85171,0 -2.03864,0.55684 -2.63762,1.23743 -1.22087,1.38723 -19.63624,45.29709 -19.63624,46.82092 0,2.86317 4.49561,4.62067 6.55406,2.56223 z m 82.14775,-0.57334 c 0.88866,-1.26873 1.10076,-3.82714 1.10076,-13.27769 0,-15.58416 0.55041,-14.84924 -11.12135,-14.84924 -9.55153,0 -11.50607,0.63977 -11.50607,3.76623 0,3.12894 1.89166,4.01194 8.59487,4.01194 h 6.25437 v 7.14739 7.14738 l -7.95495,-0.28243 c -8.69729,-0.30878 -11.01373,-1.07906 -15.26476,-5.07589 -3.86378,-3.63273 -5.33231,-7.16491 -5.33231,-12.82553 0,-5.66063 1.46853,-9.19281 5.33231,-12.82554 4.56212,-4.28932 6.30278,-4.78435 18.24524,-5.18885 10.91499,-0.3697 10.93739,-0.37388 11.97875,-2.23346 0.93825,-1.67543 0.91734,-2.05533 -0.2076,-3.77221 l -1.25092,-1.90913 -11.43493,0.23666 c -10.6415,0.22026 -11.71339,0.36721 -15.44788,2.11787 -5.61841,2.63381 -10.05645,6.97881 -12.7809,12.51295 -2.08216,4.22947 -2.297,5.26727 -2.28693,11.04684 0.009,5.38434 0.29989,6.99839 1.86334,10.35277 3.26851,7.01259 9.12633,12.18527 16.35902,14.44566 1.85913,0.58101 6.88703,0.94902 13.36946,0.97853 9.96146,0.0453 10.4351,-0.0175 11.49048,-1.52425 z m 50.71933,-21.51901 c 1.65923,-1.50159 1.6537,-3.94109 -0.0124,-5.44887 -1.166,-1.05521 -3.44858,-1.16136 -21.36321,-0.99347 l -20.05772,0.18797 -1.04537,1.86307 c -0.93772,1.6712 -0.92059,2.05349 0.1663,3.71231 l 1.21168,1.84924 h 19.90379 c 17.52838,0 20.05811,-0.13966 21.1969,-1.17025 z m 0,-21.92031 c 1.65923,-1.50159 1.6537,-3.94109 -0.0124,-5.44887 -1.166,-1.05521 -3.44858,-1.16137 -21.36321,-0.99347 l -20.05772,0.18797 -1.04537,1.86306 c -0.93772,1.67121 -0.92059,2.0535 0.1663,3.71231 l 1.21168,1.84925 h 19.90379 c 17.52838,0 20.05811,-0.13966 21.1969,-1.17025 z M 44.162719,220.00788 c 1.134128,-1.02638 1.293114,-2.37388 1.293114,-10.96016 v -9.7899 h 12.397082 c 13.213662,0 15.834278,-0.50852 19.305112,-3.74606 3.228091,-3.01112 4.53184,-6.64821 4.239254,-11.82631 -0.299814,-5.30588 -1.997924,-8.5319 -5.897533,-11.20396 -3.721659,-2.55011 -6.413749,-2.92216 -21.144735,-2.92216 -12.119641,0 -14.272046,0.16373 -15.38424,1.17026 -1.204154,1.08974 -1.293115,2.81424 -1.293115,25.06715 0,22.01298 0.09755,23.95373 1.237437,24.61764 1.830141,1.06596 3.788169,0.91429 5.247624,-0.4065 z m 51.10297,0.0498 c 0.985834,-0.98584 1.098137,-3.97824 0.934392,-24.89866 L 96.01397,171.38085 94.150907,170.3354 c -1.671254,-0.93783 -2.053446,-0.92072 -3.712311,0.16621 l -1.849247,1.21165 v 23.62126 c 0,20.53107 0.145367,23.76664 1.111169,24.73244 1.428469,1.42847 4.131908,1.42394 5.565171,-0.009 z m 132.937161,-0.45105 c 0.89008,-1.27077 1.10076,-3.84208 1.10076,-13.43503 0,-15.3219 0.4903,-14.69194 -11.43481,-14.69194 -9.33831,0 -11.19261,0.65411 -11.19261,3.94818 0,3.07085 1.69188,3.83 8.53579,3.83 h 6.31345 v 7.07107 7.07107 h -6.81225 c -3.74674,0 -8.06125,-0.37421 -9.58779,-0.83158 -3.43226,-1.02832 -8.67392,-5.54728 -10.43223,-8.99386 -4.47065,-8.76319 -0.68702,-19.83948 8.2726,-24.21742 2.94467,-1.43885 4.63932,-1.67306 13.80083,-1.90734 9.66806,-0.24724 10.5217,-0.37808 11.49048,-1.76122 1.39968,-1.99831 1.31939,-3.02793 -0.36768,-4.71499 -1.26276,-1.26277 -2.35702,-1.41422 -10.21824,-1.41422 -9.56071,0 -14.76968,0.81492 -19.04799,2.97996 -4.09243,2.07097 -9.46339,7.81858 -11.59645,12.40966 -1.59476,3.43246 -1.8869,5.03393 -1.90083,10.41978 -0.0143,5.50957 0.24943,6.93356 1.96398,10.6066 2.08761,4.47226 6.33748,9.35556 10.26962,11.80026 4.32434,2.68855 7.82079,3.30602 18.99933,3.35524 10.32673,0.0455 10.78596,-0.0137 11.84404,-1.52425 z m 50.71933,0.40129 c 1.60813,-1.45533 1.65813,-3.61835 0.12286,-5.3148 -1.08034,-1.19377 -2.6829,-1.29312 -20.85965,-1.29312 -18.74659,0 -19.75712,0.0677 -21.10361,1.41422 -1.70195,1.70195 -1.76824,2.71541 -0.31346,4.79241 1.09311,1.56062 1.23892,1.57155 20.98075,1.57155 17.50625,0 20.0344,-0.13973 21.17311,-1.17026 z m 0,-21.92031 c 1.75812,-1.59108 1.62763,-4.1721 -0.27844,-5.50716 -1.32912,-0.93096 -4.54683,-1.10076 -20.85965,-1.10076 -18.34529,0 -19.35722,0.0692 -20.70231,1.41422 -1.70195,1.70195 -1.76824,2.71541 -0.31346,4.79241 1.09311,1.56062 1.23892,1.57155 20.98075,1.57155 17.50625,0 20.0344,-0.13973 21.17311,-1.17026 z m 0.18195,-21.86122 c 1.51336,-1.51339 1.39562,-3.55415 -0.30305,-5.25282 -1.34564,-1.34565 -2.35702,-1.41422 -20.85965,-1.41422 -18.50263,0 -19.514,0.0686 -20.85965,1.41422 -1.72064,1.72063 -1.79914,3.35239 -0.24396,5.07084 1.08115,1.19467 2.69236,1.29312 21.1627,1.29312 17.23213,0 20.14586,-0.15342 21.10361,-1.11117 z M 359.9266,93.808076 c -0.47789,-0.266099 -2.77808,-0.983614 -5.11153,-1.594477 -4.1824,-1.094877 -4.25979,-1.088287 -5.45,0.464103 -3.8032,4.960517 -28.13758,40.022208 -28.13758,40.541448 0,0.342 8.9028,-8.27672 19.784,-19.15272 12.72297,-12.71688 19.47389,-19.947213 18.91511,-20.258354 z m 45.42144,-3.065952 c 6.00483,-6.014219 10.77395,-11.066434 10.59804,-11.227131 -0.52109,-0.476045 -8.21929,-2.586653 -9.43452,-2.586653 -0.66794,0 -2.10618,1.923578 -3.5687,4.772971 -1.34742,2.625134 -2.4655,4.364645 -2.48463,3.865583 -0.0192,-0.499069 0.78211,-2.519442 1.78053,-4.489732 0.99842,-1.970282 1.67188,-3.725767 1.49657,-3.90108 -0.26263,-0.262634 -27.60994,6.75975 -30.7919,7.906911 -0.77098,0.277949 -0.789,0.557645 -0.0902,1.399654 1.04125,1.254627 -0.0593,1.424255 -1.28537,0.198131 -0.66748,-0.66748 -1.69909,-0.01973 -4.72012,2.963775 -2.12628,2.09986 -3.69422,3.989673 -3.48432,4.199571 0.61563,0.615628 27.34251,7.709146 29.29042,7.773906 1.38496,0.046 4.18172,-2.350114 12.6942,-10.875906 z m -39.20709,-1.805328 c 3.09181,-3.13901 3.39434,-3.708351 2.62507,-4.940153 -1.18098,-1.891051 -1.09354,-2.477674 0.20827,-1.397264 0.59276,0.491948 1.18464,0.769559 1.31528,0.616908 0.13064,-0.152643 2.08376,-7.227211 4.34028,-15.721254 3.12509,-11.763613 3.89277,-15.573483 3.22162,-15.988279 -0.67115,-0.414789 -0.62519,-0.642767 0.19283,-0.956673 0.84446,-0.324046 0.94235,-0.91173 0.45812,-2.750052 -0.33872,-1.285866 -0.98018,-3.740383 -1.42546,-5.45448 l -0.8096,-3.116545 -11.25648,11.239979 c -6.19106,6.181994 -11.25648,11.673966 -11.25648,12.204395 0,0.857501 3.95993,16.119539 6.77171,26.099001 0.57529,2.041771 1.2877,3.712311 1.58314,3.712311 0.29543,0 2.1097,-1.596555 4.0317,-3.547894 z m 37.27392,-13.341225 c 0.2841,-0.262973 -4.87274,-5.860431 -11.45965,-12.438787 -7.94689,-7.936581 -12.09239,-11.616789 -12.32154,-10.938589 -0.93101,2.755362 -8.2016,30.541358 -8.2016,31.344044 0,0.661223 4.46505,-0.27039 15.73312,-3.282644 8.65322,-2.313236 15.96558,-4.421044 16.24967,-4.684024 z m 10.7146,-6.268629 c -1.33359,-4.958587 -3.07807,-11.581653 -3.87661,-14.717927 -0.79854,-3.136273 -1.69599,-6.097254 -1.99432,-6.579961 -0.46425,-0.751181 -30.50193,-9.480754 -30.97942,-9.003266 -0.27628,0.276281 2.42174,9.637484 2.92176,10.137501 0.25072,0.250726 6.39164,0.08071 13.64648,-0.3778 7.25485,-0.45851 13.32295,-0.701337 13.48468,-0.539608 0.16173,0.16173 -0.0993,6.211665 -0.57998,13.444307 -0.48071,7.232642 -0.64707,13.381381 -0.36967,13.663878 0.4047,0.41213 7.8149,2.641107 9.70782,2.920103 0.25518,0.03762 -0.62715,-3.988641 -1.96074,-8.947227 z m -8.13559,-8.986889 c 0.40322,-6.206744 0.64183,-11.376288 0.53023,-11.487891 -0.11159,-0.111596 -5.74602,0.269188 -12.52094,0.846187 -6.77493,0.576993 -12.47353,1.053123 -12.66356,1.058059 -0.19003,0.0049 4.90113,5.263816 11.31371,11.686389 9.37042,9.385033 11.75229,11.432503 12.13333,10.429826 0.26075,-0.68617 0.80401,-6.325827 1.20723,-12.53257 z"
       id="path82"
       inkscape:connector-curvature="0"
       transform="matrix(0.9375,0,0,0.9375,38.613804,32.980513)" />
    <path
       style="fill:none;stroke-width:0.70710683"
       d="m 39.233293,219.6225 c -1.21487,-1.21487 -1.21487,-47.29266 0,-48.50753 1.37961,-1.37961 29.54465,-1.16758 32.938534,0.24797 5.901889,2.4616 9.935754,9.30699 8.918759,15.13496 -0.708224,4.05853 -3.568131,8.31302 -6.901069,10.26625 -2.965591,1.73795 -3.407571,1.78656 -16.244663,1.78656 H 44.748726 v 10.11163 c 0,10.6106 -0.322836,11.80868 -3.18198,11.80868 -0.816709,0 -1.866762,-0.38183 -2.333453,-0.84852 z m 32.899565,-29.92972 c 2.312196,-2.3122 2.466727,-2.73568 2.120173,-5.8103 -0.716061,-6.35287 -3.789726,-7.46804 -19.604809,-7.11289 l -9.545942,0.21436 -0.2007,7.6014 -0.200699,7.6014 h 12.469002 12.469003 z"
       id="path84"
       inkscape:connector-curvature="0"
       transform="matrix(0.9375,0,0,0.9375,38.613804,32.980513)" />
    <rect
       style="fill:#0071b2;fill-opacity:0;fill-rule:nonzero;stroke-width:0.9375"
       id="rect4584"
       width="47.77113"
       height="10.918374"
       x="257.41641"
       y="273.16885" />
  </g>
  <g
     inkscape:groupmode="layer"
     id="layer1"
     inkscape:label="circle"
     style="display:none"
     sodipodi:insensitive="true"
     transform="translate(-38.613804,-32.980513)">
    <circle
       style="display:inline;fill:#000000;fill-opacity:1"
       id="path4160"
       cx="485.3125"
       cy="222.54971"
       r="27.375" />
  </g>
</svg>
