<?xml version="1.0" encoding="UTF-8" standalone="no"?>
<!-- Created with Inkscape (http://www.inkscape.org/) -->

<svg
   xmlns:dc="http://purl.org/dc/elements/1.1/"
   xmlns:cc="http://creativecommons.org/ns#"
   xmlns:rdf="http://www.w3.org/1999/02/22-rdf-syntax-ns#"
   xmlns:svg="http://www.w3.org/2000/svg"
   xmlns="http://www.w3.org/2000/svg"
   xmlns:sodipodi="http://sodipodi.sourceforge.net/DTD/sodipodi-0.dtd"
   xmlns:inkscape="http://www.inkscape.org/namespaces/inkscape"
   width="120.49993mm"
   height="108.4315mm"
   viewBox="0 0 426.96825 384.20611"
   id="svg2"
   version="1.1"
   inkscape:version="0.91 r13725"
   sodipodi:docname="logo3-path.svg">
  <defs
     id="defs4" />
  <sodipodi:namedview
     id="base"
     pagecolor="#ffffff"
     bordercolor="#666666"
     borderopacity="1.0"
     inkscape:pageopacity="0.0"
     inkscape:pageshadow="2"
     inkscape:zoom="1.9999999"
     inkscape:cx="-34.163881"
     inkscape:cy="94.651475"
     inkscape:document-units="px"
     inkscape:current-layer="layer3"
     showgrid="false"
     inkscape:object-nodes="true"
     inkscape:snap-intersection-paths="true"
     inkscape:object-paths="true"
     inkscape:snap-smooth-nodes="true"
     inkscape:window-width="2560"
     inkscape:window-height="1381"
     inkscape:window-x="0"
     inkscape:window-y="30"
     inkscape:window-maximized="1"
     inkscape:snap-midpoints="true"
     inkscape:snap-text-baseline="true"
     inkscape:snap-bbox="true"
     inkscape:snap-others="true"
     inkscape:bbox-nodes="true"
     inkscape:bbox-paths="true"
     inkscape:snap-bbox-edge-midpoints="true"
     inkscape:snap-bbox-midpoints="true"
     inkscape:snap-nodes="true"
     inkscape:snap-global="true"
     showguides="true"
     fit-margin-top="10"
     fit-margin-left="10"
     fit-margin-right="10"
     fit-margin-bottom="10"
     showborder="true"
     borderlayer="false">
    <sodipodi:guide
       position="406.7768,178.44919"
       orientation="-18.90625,7.5"
       id="guide4196" />
    <sodipodi:guide
       position="486.74556,178.44919"
       orientation="-18.90625,-7.5"
       id="guide4198" />
    <sodipodi:guide
       position="446.76118,279.24314"
       orientation="173.37106,0"
       id="guide4202" />
    <sodipodi:guide
       position="446.76119,106.38663"
       orientation="0,20.55988"
       id="guide4170" />
    <sodipodi:guide
       position="446.76118,106.38663"
       orientation="-160.88252,99.87498"
       id="guide4178" />
    <sodipodi:guide
       position="446.76118,106.38663"
       orientation="-160.88252,-99.5428"
       id="guide4182" />
    <sodipodi:guide
       position="575.09726,-44.270752"
       orientation="0,-29.96109"
       id="guide4188" />
    <sodipodi:guide
       position="446.76118,279.24314"
       orientation="172.85648,-42.25001"
       id="guide4194" />
    <sodipodi:guide
       position="446.76118,279.24314"
       orientation="172.85648,42.25002"
       id="guide4199" />
    <sodipodi:guide
       position="404.97862,173.91626"
       orientation="0.13703,83.61949"
       id="guide4211" />
    <sodipodi:guide
       position="367.68712,-20.988961"
       orientation="0,59.85919"
       id="guide4217" />
    <sodipodi:guide
       position="367.68712,-67.552499"
       orientation="0,26.62518"
       id="guide4221" />
    <sodipodi:guide
       position="472.53251,175.88667"
       orientation="0,12.54116"
       id="guide4235" />
    <sodipodi:guide
       position="472.53251,171.72445"
       orientation="0,6.66616"
       id="guide4239" />
    <sodipodi:guide
       position="474.13618,178.82422"
       orientation="22.49479,-38.96211"
       id="guide4263" />
    <sodipodi:guide
       position="446.76118,163.01925"
       orientation="21.1476,36.62872"
       id="guide4267" />
    <sodipodi:guide
       position="429.84442,203.90031"
       orientation="97.51364,16.91676"
       id="guide4271" />
    <sodipodi:guide
       position="467.62458,226.65"
       orientation="120.26333,-20.8634"
       id="guide4283" />
    <sodipodi:guide
       position="454.67494,154.81398"
       orientation="0,-20.28876"
       id="guide4293" />
    <sodipodi:guide
       position="446.01899,164.60632"
       orientation="5.72328,0"
       id="guide4184" />
    <sodipodi:guide
       position="447.51899,164.61804"
       orientation="5.93387,0"
       id="guide4190" />
    <sodipodi:guide
       position="353.94864,347.42277"
       orientation="6.870815,25.21968"
       id="guide4183" />
    <sodipodi:guide
       position="390.12295,311.11858"
       orientation="-25.135444,-6.7037"
       id="guide4187" />
    <sodipodi:guide
       position="389.85088,309.64499"
       orientation="18.53394,-18.53393"
       id="guide4191" />
    <sodipodi:guide
       position="340.30645,296.38397"
       orientation="6.77276,25.27079"
       id="guide4195" />
    <sodipodi:guide
       position="339.2375,297.43635"
       orientation="-25.26249,-6.76999"
       id="guide4200" />
    <sodipodi:guide
       position="352.51786,346.96147"
       orientation="18.503549,-18.50355"
       id="guide4204" />
  </sodipodi:namedview>
  <metadata
     id="metadata7">
    <rdf:RDF>
      <cc:Work
         rdf:about="">
        <dc:format>image/svg+xml</dc:format>
        <dc:type
           rdf:resource="http://purl.org/dc/dcmitype/StillImage" />
        <dc:title></dc:title>
      </cc:Work>
    </rdf:RDF>
  </metadata>
  <g
     inkscape:groupmode="layer"
     id="layer4"
     inkscape:label="Background"
     style="display:inline"
     sodipodi:insensitive="true"
     transform="translate(-38.613804,-32.980513)">
    <rect
       style="display:inline;fill:#000000;fill-opacity:1;stroke:none;stroke-width:3;stroke-miterlimit:4;stroke-dasharray:none"
       id="rect4178"
       width="817.89136"
       height="1135.723"
       x="-42.902306"
       y="-50.833889" />
  </g>
  <g
     inkscape:groupmode="layer"
     id="layer2"
     inkscape:label="Phage"
     style="display:inline"
     transform="translate(-38.613804,-32.980513)">
    <path
       style="display:inline;fill:#000000;fill-opacity:1;fill-rule:evenodd;stroke:none;stroke-width:0.2;stroke-linecap:butt;stroke-linejoin:miter;stroke-miterlimit:4;stroke-dasharray:none;stroke-opacity:1"
       d="m 391.34652,68.413584 -22.22967,22.22967 8.13172,30.759146 30.53818,8.17592 22.36225,-22.36225 -8.17592,-30.538175 z"
       id="path4316"
       inkscape:connector-curvature="0" />
    <path
       style="display:inline;fill:#ffffff;fill-opacity:1;fill-rule:evenodd;stroke:none;stroke-width:0.2;stroke-linecap:butt;stroke-linejoin:miter;stroke-miterlimit:4;stroke-dasharray:none;stroke-opacity:1"
       d="m 392.56246,69.763661 2.53702,9.52523 26.0306,-1.742294 z"
       id="path4318"
       inkscape:connector-curvature="0"
       sodipodi:nodetypes="cccc" />
    <path
       style="display:inline;fill:#ffffff;fill-opacity:1;fill-rule:evenodd;stroke:none;stroke-width:0.2;stroke-linecap:butt;stroke-linejoin:miter;stroke-miterlimit:4;stroke-dasharray:none;stroke-opacity:1"
       d="m 396.24991,80.740391 21.66067,21.660679 1.7169,-23.440274 z"
       id="path4320"
       inkscape:connector-curvature="0"
       sodipodi:nodetypes="cccc" />
    <path
       style="display:inline;fill:#b2b2b2;fill-opacity:1;fill-rule:evenodd;stroke:none;stroke-width:0.2;stroke-linecap:butt;stroke-linejoin:miter;stroke-miterlimit:4;stroke-dasharray:none;stroke-opacity:1"
       d="m 419.38418,103.57359 9.35259,2.49421 -7.60669,-28.521218 z"
       id="path4322"
       inkscape:connector-curvature="0"
       sodipodi:nodetypes="cccc" />
    <path
       style="display:inline;fill:#ffffff;fill-opacity:1;fill-rule:evenodd;stroke:none;stroke-width:0.2;stroke-linecap:butt;stroke-linejoin:miter;stroke-miterlimit:4;stroke-dasharray:none;stroke-opacity:1"
       d="m 370.19108,91.165539 23.46518,-11.447137 -2.52458,-9.49346 z"
       id="path4151"
       inkscape:connector-curvature="0"
       sodipodi:nodetypes="cccc" />
    <path
       style="display:inline;fill:#ffffff;fill-opacity:1;fill-rule:evenodd;stroke:none;stroke-width:0.2;stroke-linecap:butt;stroke-linejoin:miter;stroke-miterlimit:4;stroke-dasharray:none;stroke-opacity:1"
       d="m 372.42546,91.759289 13.04798,19.498561 7.97705,-29.864213 c 0,0 -20.71253,10.365652 -21.02503,10.365652 z"
       id="path4155"
       inkscape:connector-curvature="0"
       sodipodi:nodetypes="cccc" />
    <path
       style="display:inline;fill:#ffffff;fill-opacity:1;fill-rule:evenodd;stroke:none;stroke-width:0.2;stroke-linecap:butt;stroke-linejoin:miter;stroke-miterlimit:4;stroke-dasharray:none;stroke-opacity:1"
       d="m 386.79374,111.85448 c 10.10297,-2.70967 20.20595,-5.41931 30.30892,-8.12898 -7.38595,-7.38594 -14.7719,-14.771894 -22.15786,-22.157851 -2.71702,10.095611 -5.43404,20.191211 -8.15106,30.286831 z"
       id="path4159"
       inkscape:connector-curvature="0" />
    <path
       style="display:inline;fill:#bdbdbd;fill-opacity:1;fill-rule:evenodd;stroke:none;stroke-width:0.2;stroke-linecap:butt;stroke-linejoin:miter;stroke-miterlimit:4;stroke-dasharray:none;stroke-opacity:1"
       d="m 387.4318,113.20516 19.60299,13.39115 10.20321,-21.3903 z"
       id="path4169"
       inkscape:connector-curvature="0"
       sodipodi:nodetypes="cccc" />
    <path
       style="display:inline;fill:#8a8a8a;fill-opacity:1;fill-rule:evenodd;stroke:none;stroke-width:0.2;stroke-linecap:butt;stroke-linejoin:miter;stroke-miterlimit:4;stroke-dasharray:none;stroke-opacity:1"
       d="m 418.94776,105.00437 -11.41297,23.46694 20.92991,-20.92992 c -3.17231,-0.84566 -6.34462,-1.69134 -9.51694,-2.53702 z"
       id="path4171"
       inkscape:connector-curvature="0"
       sodipodi:nodetypes="cccc" />
    <path
       style="display:inline;fill:#8a8a8a;fill-opacity:1;fill-rule:evenodd;stroke:none;stroke-width:0.2;stroke-linecap:butt;stroke-linejoin:miter;stroke-miterlimit:4;stroke-dasharray:none;stroke-opacity:1"
       d="m 385.84495,113.87773 -6.92468,6.92468 28.61452,7.6689 z"
       id="path4173"
       inkscape:connector-curvature="0"
       sodipodi:nodetypes="cccc" />
    <path
       style="display:inline;fill:#b2b2b2;fill-opacity:1;fill-rule:evenodd;stroke:none;stroke-width:0.2;stroke-linecap:butt;stroke-linejoin:miter;stroke-miterlimit:4;stroke-dasharray:none;stroke-opacity:1"
       d="m 377.85132,119.75003 6.92882,-6.92881 -14.58906,-21.655683 z"
       id="path4175"
       inkscape:connector-curvature="0"
       sodipodi:nodetypes="cccc" />
    <path
       style="fill:#ffffff;fill-opacity:1;fill-rule:evenodd;stroke:#000000;stroke-width:0.2;stroke-linecap:butt;stroke-linejoin:miter;stroke-miterlimit:4;stroke-dasharray:none;stroke-opacity:1"
       d="m 162.92383,167.29384 194.43668,-83.987437 -20.15189,78.135947 9.41336,-65.98191 -183.69815,71.8334"
       id="path4241"
       inkscape:connector-curvature="0" />
    <path
       style="fill:#bdbdbd;fill-opacity:1;fill-rule:evenodd;stroke:#000000;stroke-width:0.2;stroke-linecap:butt;stroke-linejoin:miter;stroke-miterlimit:4;stroke-dasharray:none;stroke-opacity:1"
       d="M 337.20862,161.44235 364.82665,96.6588 154.2774,224.49826 l 200.60539,-116.904 -17.67417,53.84809"
       id="path4243"
       inkscape:connector-curvature="0" />
    <path
       style="fill:#bdbdbd;fill-opacity:1;fill-rule:evenodd;stroke:#000000;stroke-width:0.2;stroke-linecap:butt;stroke-linejoin:miter;stroke-miterlimit:4;stroke-dasharray:none;stroke-opacity:1"
       d="M 337.20862,161.44235 404.21593,130.16182 299.03044,303.40046 392.6723,141.334 Z"
       id="path4245"
       inkscape:connector-curvature="0" />
    <path
       style="fill:#ffffff;fill-opacity:1;fill-rule:evenodd;stroke:#000000;stroke-width:0.2;stroke-linecap:butt;stroke-linejoin:miter;stroke-miterlimit:4;stroke-dasharray:none;stroke-opacity:1"
       d="m 337.20862,161.44235 76.36034,-16.04123 -102.07593,236.31277 90.63975,-227.86962 -64.92416,7.59808"
       id="path4247"
       inkscape:connector-curvature="0"
       sodipodi:nodetypes="ccccc" />
    <path
       style="fill:#ffffff;fill-opacity:1;fill-rule:evenodd;stroke:none;stroke-width:0.2;stroke-linecap:butt;stroke-linejoin:miter;stroke-miterlimit:4;stroke-dasharray:none;stroke-opacity:1"
       d="m 376.4261,121.17526 -9.13257,-2.44707 -27.58456,39.1642 z"
       id="path4184"
       inkscape:connector-curvature="0" />
    <path
       style="fill:#8a8a8a;fill-opacity:1;fill-rule:evenodd;stroke:none;stroke-width:0.2;stroke-linecap:butt;stroke-linejoin:miter;stroke-miterlimit:4;stroke-dasharray:none;stroke-opacity:1"
       d="m 377.48038,122.2423 2.4424,9.11515 -39.08948,27.53193 z"
       id="path4186"
       inkscape:connector-curvature="0" />
  </g>
  <g
     inkscape:groupmode="layer"
     id="layer3"
     inkscape:label="Name"
     style="display:inline"
     transform="translate(-38.613804,-32.980513)">
    <g
       style="font-style:normal;font-variant:normal;font-weight:normal;font-stretch:normal;font-size:70px;line-height:125%;font-family:'Electro Shackle';-inkscape-font-specification:'Electro Shackle';letter-spacing:0px;word-spacing:0px;display:inline;fill:#ffff00;fill-opacity:1;stroke:none;stroke-width:1px;stroke-linecap:butt;stroke-linejoin:miter;stroke-opacity:1"
       id="text4206">
      <path
         d="m 80.882812,236.78159 q 0,1.40136 -1.02539,2.42675 -0.991211,0.99121 -2.392578,0.99121 -1.401367,0 -2.426758,-0.99121 -0.991211,-1.02539 -0.991211,-2.42675 l 0,-41.01563 q 0,-1.40137 0.991211,-2.39258 1.025391,-1.02539 2.426758,-1.02539 l 23.925786,0 q 5.67382,0 9.67285,3.99903 3.99902,3.99902 3.99902,9.67285 0,5.67383 -3.99902,9.67285 -3.99903,3.99902 -9.67285,3.99902 l -20.507818,0 0,17.08985 z m 0,-37.59766 0,13.67187 20.507818,0 q 2.83691,0 4.81933,-1.98242 2.0166,-2.0166 2.0166,-4.85351 0,-2.83692 -2.0166,-4.81934 -1.98242,-2.0166 -4.81933,-2.0166 l -20.507818,0 z"
         style=""
         id="path4187" />
      <path
         d="m 121.89844,195.76596 q 0,-1.40137 0.99121,-2.39258 1.02539,-1.02539 2.42676,-1.02539 1.40136,0 2.39257,1.02539 1.02539,0.99121 1.02539,2.39258 l 0,41.01563 q 0,1.40136 -1.02539,2.42675 -0.99121,0.99121 -2.39257,0.99121 -1.40137,0 -2.42676,-0.99121 -0.99121,-1.02539 -0.99121,-2.42675 l 0,-41.01563 z m 34.17968,0 q 0,-1.40137 0.99122,-2.39258 1.02539,-1.02539 2.42675,-1.02539 1.40137,0 2.39258,1.02539 1.02539,0.99121 1.02539,2.39258 l 0,41.01563 q 0,1.40136 -1.02539,2.42675 -0.99121,0.99121 -2.39258,0.99121 -1.40136,0 -2.42675,-0.99121 -0.99122,-1.02539 -0.99122,-2.42675 l 0,-17.08985 -17.08984,0 q -1.40137,0 -2.42676,-0.99121 -0.99121,-1.02539 -0.99121,-2.42676 0,-1.40136 0.99121,-2.39257 1.02539,-1.0254 2.42676,-1.0254 l 17.08984,0 0,-17.08984 z"
         style=""
         id="path4189" />
      <path
         d="m 176.27832,238.18295 q -0.23926,0.54688 -0.68359,0.99121 -1.02539,1.02539 -2.42676,1.02539 -1.40137,0 -2.42676,-0.99121 -0.99121,-1.02539 -0.99121,-2.42675 0,-0.8545 0.37598,-1.57227 l 16.78222,-40.29785 0.0342,0 q 0.20508,-0.85449 0.92285,-1.57227 0.99122,-0.99121 2.39258,-0.99121 1.40137,0 2.42676,0.99121 0.75195,0.78614 0.92285,1.74317 l 0.13672,-0.0342 16.88477,40.63965 -0.0342,0 q 0.17089,0.51269 0.17089,1.09375 0,1.40136 -1.02539,2.42675 -0.99121,0.99121 -2.39257,0.99121 -1.40137,0 -2.39258,-1.02539 -0.6836,-0.64941 -0.88867,-1.46972 l -13.77442,-33.18848 -13.97949,33.66699 -0.0342,0 z"
         style=""
         id="path4191" />
      <path
         d="m 249.73047,192.34799 q 1.40137,0 2.39258,1.02539 1.02539,0.99121 1.02539,2.39258 0,1.40137 -1.02539,2.42676 -0.99121,0.99121 -2.39258,0.99121 l -13.67188,0 q -7.07519,0 -12.09961,5.02441 -4.99023,4.99024 -4.99023,12.06543 0,7.0752 4.99023,12.09961 5.02442,4.99024 12.09961,4.99024 l 10.25391,0 0,-13.67188 -10.25391,0 q -1.40136,0 -2.42675,-0.99121 -0.99122,-1.02539 -0.99122,-2.42676 0,-1.40136 0.99122,-2.39257 1.02539,-1.0254 2.42675,-1.0254 l 13.67188,0 q 1.40137,0 2.39258,1.0254 1.02539,0.99121 1.02539,2.39257 l 0,20.50782 q 0,1.40136 -1.02539,2.42675 -0.99121,0.99121 -2.39258,0.99121 l -13.67188,0 q -9.91211,0 -16.91894,-7.00683 -7.00684,-7.00684 -7.00684,-16.91895 0,-9.91211 7.00684,-16.91894 7.00683,-7.00684 16.91894,-7.00684 l 13.67188,0 z"
         style=""
         id="path4193" />
      <path
         d="m 263.40234,199.18393 q -1.40136,0 -2.42675,-0.99121 -0.99122,-1.02539 -0.99122,-2.42676 0,-1.40137 0.99122,-2.39258 1.02539,-1.02539 2.42675,-1.02539 l 34.17969,0 q 1.40137,0 2.39258,1.02539 1.02539,0.99121 1.02539,2.39258 0,1.40137 -1.02539,2.42676 -0.99121,0.99121 -2.39258,0.99121 l -34.17969,0 z m 34.17969,13.67187 q 1.40137,0 2.39258,1.0254 1.02539,0.99121 1.02539,2.39257 0,1.40137 -1.02539,2.42676 -0.99121,0.99121 -2.39258,0.99121 l -34.17969,0 q -1.40136,0 -2.42675,-0.99121 -0.99122,-1.02539 -0.99122,-2.42676 0,-1.40136 0.99122,-2.39257 1.02539,-1.0254 2.42675,-1.0254 l 34.17969,0 z m -34.17969,27.34375 q -1.40136,0 -2.42675,-0.99121 -0.99122,-1.02539 -0.99122,-2.42675 0,-1.40137 0.99122,-2.39258 1.02539,-1.02539 2.42675,-1.02539 l 34.17969,0 q 1.40137,0 2.39258,1.02539 1.02539,0.99121 1.02539,2.39258 0,1.40136 -1.02539,2.42675 -0.99121,0.99121 -2.39258,0.99121 l -34.17969,0 z"
         style=""
         id="path4195" />
    </g>
    <g
       style="font-style:normal;font-weight:normal;font-size:70px;line-height:125%;font-family:sans-serif;letter-spacing:0px;word-spacing:0px;display:inline;fill:#00ffff;fill-opacity:1;stroke:none;stroke-width:1px;stroke-linecap:butt;stroke-linejoin:miter;stroke-opacity:1"
       id="text4276">
      <path
         d="m 176.27832,299.70639 q -0.23926,0.54688 -0.68359,0.99121 -1.02539,1.02539 -2.42676,1.02539 -1.40137,0 -2.42676,-0.99121 -0.99121,-1.02539 -0.99121,-2.42676 0,-0.85449 0.37598,-1.57226 l 16.78222,-40.29785 0.0342,0 q 0.20508,-0.8545 0.92285,-1.57227 0.99122,-0.99121 2.39258,-0.99121 1.40137,0 2.42676,0.99121 0.75195,0.78613 0.92285,1.74316 l 0.13672,-0.0342 16.88477,40.63965 -0.0342,0 q 0.17089,0.5127 0.17089,1.09375 0,1.40137 -1.02539,2.42676 -0.99121,0.99121 -2.39257,0.99121 -1.40137,0 -2.39258,-1.02539 -0.6836,-0.64941 -0.88867,-1.46973 l -13.77442,-33.18847 -13.97949,33.66699 -0.0342,0 z"
         style="font-style:normal;font-variant:normal;font-weight:normal;font-stretch:normal;font-family:'Electro Shackle';-inkscape-font-specification:'Electro Shackle';fill:#00ffff;fill-opacity:1"
         id="path4198" />
      <path
         d="m 249.73047,253.87143 q 1.40137,0 2.39258,1.02539 1.02539,0.99121 1.02539,2.39258 0,1.40137 -1.02539,2.42676 -0.99121,0.99121 -2.39258,0.99121 l -13.67188,0 q -7.07519,0 -12.09961,5.02441 -4.99023,4.99024 -4.99023,12.06543 0,7.0752 4.99023,12.09961 5.02442,4.99023 12.09961,4.99023 l 10.25391,0 0,-13.67187 -10.25391,0 q -1.40136,0 -2.42675,-0.99121 -0.99122,-1.02539 -0.99122,-2.42676 0,-1.40137 0.99122,-2.39258 1.02539,-1.02539 2.42675,-1.02539 l 13.67188,0 q 1.40137,0 2.39258,1.02539 1.02539,0.99121 1.02539,2.39258 l 0,20.50781 q 0,1.40137 -1.02539,2.42676 -0.99121,0.99121 -2.39258,0.99121 l -13.67188,0 q -9.91211,0 -16.91894,-7.00683 -7.00684,-7.00684 -7.00684,-16.91895 0,-9.91211 7.00684,-16.91894 7.00683,-7.00684 16.91894,-7.00684 l 13.67188,0 z"
         style="font-style:normal;font-variant:normal;font-weight:normal;font-stretch:normal;font-family:'Electro Shackle';-inkscape-font-specification:'Electro Shackle';fill:#00ffff;fill-opacity:1"
         id="path4200" />
      <path
         d="m 263.40234,260.70737 q -1.40136,0 -2.42675,-0.99121 -0.99122,-1.02539 -0.99122,-2.42676 0,-1.40137 0.99122,-2.39258 1.02539,-1.02539 2.42675,-1.02539 l 34.17969,0 q 1.40137,0 2.39258,1.02539 Q 301,255.88803 301,257.2894 q 0,1.40137 -1.02539,2.42676 -0.99121,0.99121 -2.39258,0.99121 l -34.17969,0 z m 34.17969,13.67187 q 1.40137,0 2.39258,1.02539 1.02539,0.99121 1.02539,2.39258 0,1.40137 -1.02539,2.42676 -0.99121,0.99121 -2.39258,0.99121 l -34.17969,0 q -1.40136,0 -2.42675,-0.99121 -0.99122,-1.02539 -0.99122,-2.42676 0,-1.40137 0.99122,-2.39258 1.02539,-1.02539 2.42675,-1.02539 l 34.17969,0 z m -34.17969,27.34375 q -1.40136,0 -2.42675,-0.99121 -0.99122,-1.02539 -0.99122,-2.42676 0,-1.40136 0.99122,-2.39257 1.02539,-1.0254 2.42675,-1.0254 l 34.17969,0 q 1.40137,0 2.39258,1.0254 1.02539,0.99121 1.02539,2.39257 0,1.40137 -1.02539,2.42676 -0.99121,0.99121 -2.39258,0.99121 l -34.17969,0 z"
         style="font-style:normal;font-variant:normal;font-weight:normal;font-stretch:normal;font-family:'Electro Shackle';-inkscape-font-specification:'Electro Shackle';fill:#00ffff;fill-opacity:1"
         id="path4202" />
    </g>
  </g>
  <g
     inkscape:groupmode="layer"
     id="layer1"
     inkscape:label="circle"
     style="display:none"
     sodipodi:insensitive="true"
     transform="translate(-38.613804,-32.980513)">
    <circle
       style="display:inline;fill:#000000;fill-opacity:1"
       id="path4160"
       cx="485.3125"
       cy="222.54971"
       r="27.375" />
  </g>
</svg>
