<?xml version="1.0" encoding="UTF-8" standalone="no"?>
<!-- Created with Inkscape (http://www.inkscape.org/) -->

<svg
   xmlns:dc="http://purl.org/dc/elements/1.1/"
   xmlns:cc="http://creativecommons.org/ns#"
   xmlns:rdf="http://www.w3.org/1999/02/22-rdf-syntax-ns#"
   xmlns:svg="http://www.w3.org/2000/svg"
   xmlns="http://www.w3.org/2000/svg"
   xmlns:sodipodi="http://sodipodi.sourceforge.net/DTD/sodipodi-0.dtd"
   xmlns:inkscape="http://www.inkscape.org/namespaces/inkscape"
   width="98mm"
   height="5.5mm"
   viewBox="0 0 98 5.5"
   version="1.1"
   id="svg8"
   inkscape:version="0.92.1 r15371"
   sodipodi:docname="splitter_1.svg">
  <defs
     id="defs2" />
  <sodipodi:namedview
     id="base"
     pagecolor="#ffffff"
     bordercolor="#666666"
     borderopacity="1.0"
     inkscape:pageopacity="0.0"
     inkscape:pageshadow="2"
     inkscape:zoom="2"
     inkscape:cx="110.94397"
     inkscape:cy="26.298172"
     inkscape:document-units="mm"
     inkscape:current-layer="layer2"
     showgrid="false"
     inkscape:pagecheckerboard="true"
     inkscape:window-width="1920"
     inkscape:window-height="1017"
     inkscape:window-x="1912"
     inkscape:window-y="-8"
     inkscape:window-maximized="1" />
  <metadata
     id="metadata5">
    <rdf:RDF>
      <cc:Work
         rdf:about="">
        <dc:format>image/svg+xml</dc:format>
        <dc:type
           rdf:resource="http://purl.org/dc/dcmitype/StillImage" />
        <dc:title />
      </cc:Work>
    </rdf:RDF>
  </metadata>
  <g
     inkscape:groupmode="layer"
     id="layer2"
     inkscape:label="Layer 2">
    <path
       style="fill:#f5f5f5;fill-opacity:1;stroke:#000000;stroke-width:0.55561852px;stroke-linecap:butt;stroke-linejoin:miter;stroke-opacity:1"
       d="M -12.188818,-8.8453291 107.98013,-20.345179 106.99844,6.3851676 -12.471411,8.7437278 Z"
       id="path14"
       inkscape:connector-curvature="0"
       sodipodi:nodetypes="ccccc" />
  </g>
  <g
     inkscape:label="Layer 1"
     inkscape:groupmode="layer"
     id="layer1"
     transform="translate(0,-291.5)">
    <path
       style="fill:none;stroke:#000000;stroke-width:0.26108813px;stroke-linecap:butt;stroke-linejoin:miter;stroke-opacity:1"
       d="m 3.5131236,317.80208 3.139e-4,-0.5 98.8600025,-5.4 v 3 z"
       id="path10"
       inkscape:connector-curvature="0"
       sodipodi:nodetypes="ccccc" />
    <path
       style="fill:#000000;stroke-width:0.10242044"
       d="m 100.53643,291.3801 c -11.532747,0.62269 -23.071456,1.11845 -34.606819,1.68347 -21.381068,1.03206 -42.764679,2.00038 -64.1433913,3.09253 -0.99832459,0.0701 -2.00304127,0.0835 -2.9970014,0.20256 -0.4380217,0.2549 0.00333,0.77133 0.35674293,0.64338 7.81024777,-0.0512 15.61935277,-0.28797 23.42915577,-0.41068 25.603523,-0.50636 51.208198,-0.95114 76.811181,-1.48281 0.442435,-0.0748 1.300372,0.21528 1.380132,-0.53573 0.0342,-1.0279 0.13497,-2.10289 -0.0183,-3.10384 -0.072,-0.018 -0.1378,-0.0842 -0.21171,-0.0889 z"
       id="path11"
       inkscape:connector-curvature="0" />
  </g>
</svg>
